<?xml version="1.0" encoding="utf-8"?>
<!-- Generator: Adobe Illustrator 28.0.0, SVG Export Plug-In . SVG Version: 6.00 Build 0)  -->
<svg version="1.1" id="Layer_1" xmlns="http://www.w3.org/2000/svg" xmlns:xlink="http://www.w3.org/1999/xlink" x="0px" y="0px"
	 viewBox="0 0 600 600" style="enable-background:new 0 0 600 600;" xml:space="preserve">
<style type="text/css">
	.st0{fill:#FFFFFF;}
	.st1{fill:#ACE1F8;}
	.st2{fill:url(#SVGID_1_);}
	.st3{fill:url(#SVGID_00000124133128418241251320000011476739848296680339_);}
	.st4{fill:url(#SVGID_00000152225309668141768720000006641183517482065293_);}
	.st5{fill:url(#SVGID_00000036966467146094251670000007947758346454698115_);}
	.st6{fill:#0076B1;}
	.st7{fill:url(#SVGID_00000052094743526037824950000005716205840595017876_);}
	.st8{fill:#3CAFEC;}
</style>
<g>
	<path class="st0" d="M375.5,220.4c51.6,8.3,86,16.5,130.1,12.2c18.7-2.2,0.5-35.4-3.6-42.7c-1.2-2.1-0.6-4.8,1.4-6.3
		c3.1-2.6,6.4-3,8.7,0.7c9.8,14.4,19.3,32.9,12.8,51.2c-19.8,30-110.6,25.5-143.3,19.8c-8.4-1.3-13.6-3.1-15.9-5.3
		c-7.3-7.3-8.5-15.7-3.6-25.1C365.2,220.8,369.7,219.3,375.5,220.4z"/>
	<path class="st0" d="M275.5,305.1c-15-17.6-24.7-37.3-29-59.1c-0.4-2.2-0.8-2.2-1.2,0c-3.7,23.1-7.9,46.8-16.2,68.9
		c-3.6,9.4-7.9,16-18.6,14.7c-17.3-2.1-28.4-15.7-35-30.5c-0.4-0.9-1.8-0.7-1.9,0.3c-2.9,23-15.1,63-41.6,69.1
		c-21.7,5-38.9-24.6-45-41c-8.2-22.3-10.8-46.4-13.6-69.8c-2-17.3,4.2-29.5,18.5-36.6c27.3-13.4,30.4,42.1,31,55.7
		c0.7,18.3,1.5,36.7,6.8,54.4c1.7,5.8,7.8,8.3,11.2,1.7c9.9-19.2,12.7-40.4,13.7-61.6c1-22.8,0.3-45.5-2.3-68.2
		c-1.1-10.2,10-21.7,18.4-27.1c22.5-14.4,27.6,33.7,28.4,45.7c1.4,10.3,0.5,74.5,15.9,69c15.1-18.6,16.3-51,16.9-74.1
		c0.1-15.9,2.5-25.2,14.4-34.6c45-31.7,42.3,94.8,63.2,106.5c0.6,0.3,1.2,0.4,1.9,0.2c17.1-11.1,9-76.6,5.1-95.4
		c-7-35.6-14.8-71.1-23.4-106.4c-1.4-5.7-0.7-10.1,3.6-13.2c12.8-4.6,16.1,3.3,18.6,13.5c8.4,34.5,16.1,69.2,23.1,104
		c4.5,33.8,10.5,76.2-5,107.7C320,327.8,295.3,328.2,275.5,305.1z"/>
	<g>
		<path class="st1" d="M271.2,121.9c-7.8,4.5-41.7,15.4-48.6,9.3c-1.2-1.1-1.4-3-0.3-4.2c0,0,0,0,0,0c1.4-1.6,3.4-2.7,5.9-3.2
			l41.5-7.7c0.5-0.1,1,0,1.5,0.3C273.1,117.6,273.1,119.4,271.2,121.9z"/>
		<path class="st1" d="M97.9,148.5c18.2-5,36.7,3.6,38.8,23.3c2.7,26-32.8,30.8-39.4,5.8c-1.1-4.1-1.2-13.4-0.4-28
			C97,149.1,97.3,148.7,97.9,148.5z M129.7,180.7c3.5-6.2,1.2-16.3-5.3-19.9c-1.7-0.9-2-0.6-1,1c3.4,5.6,4.9,11.7,4.4,18.3
			C127.6,183.1,128.2,183.3,129.7,180.7z"/>
		<path class="st1" d="M514.6,301.1c3,11.8,0.4,20.3-7.8,25.5c-4.8,3-9.8,3.7-15,2.2c-21.2-6.2-15.2-30-14.2-46.1
			c8.4-2.5,16.6-1.7,24.5,2.4C508.6,288.4,512.8,293.8,514.6,301.1z M503.6,298c2.9,6.5,3.8,12.4,2.7,17.8c-0.8,3.9-0.2,4.1,1.8,0.7
			c4.4-7.5,3.1-14.3-3.9-20.6c-0.2-0.2-0.5-0.2-0.7,0c-0.1,0.1-0.1,0.2-0.1,0.3C503.3,296.8,503.4,297.4,503.6,298z"/>
		<path class="st1" d="M430.1,286.6c-10.6,7.4-31.2,10.7-43.1,11.7c-2.9,0.3-5.1-0.9-6.5-3.4c-0.3-0.6-0.4-1.3,0-1.9
			c1-2,3.1-3.4,6.4-4.2l40.9-7.6c1.6-0.3,3.3,0.7,3.7,2.4C431.6,284.2,431.1,285.2,430.1,286.6z"/>
		<path class="st1" d="M251.7,366.7c-9.8-4.8-13.8-12.2-11.9-22.1c1.5-8.2,3.3-16.3,5.2-24.3c0.1-0.5,0.4-0.8,0.9-0.8
			c17.6-0.6,33.5,9.2,33.1,28.7c-0.2,7.5-2.9,13.3-8.3,17.5C265.4,370,259,370.3,251.7,366.7z M268.4,339c2,6.8,2.1,12.9,0.2,18.2
			c-1.2,3.2-0.6,3.5,1.6,0.9c5.4-6.6,5.2-13.6-0.6-21.1c-0.2-0.3-0.6-0.3-0.9-0.1c-0.1,0.1-0.2,0.2-0.2,0.3
			C268.2,337.7,268.2,338.3,268.4,339z"/>
		<g>
			<radialGradient id="SVGID_1_" cx="534.1216" cy="128.0666" r="445.4231" gradientUnits="userSpaceOnUse">
				<stop  offset="0" style="stop-color:#41C0F0"/>
				<stop  offset="0.9992" style="stop-color:#2065A3"/>
			</radialGradient>
			<path class="st2" d="M548.5,141.2c-0.2-16.5-7.3-28.5-21.3-36.2c-24.4-13.4-50.5-24.7-78.3-33.9C395.5,53.4,339,45.7,282.4,49.4
				C210,53.7,133.1,76.5,72.2,107.4C54,117.8,51.4,129.8,51.4,153c0,60.7,0,121.4,0,182.1c0,3.7,1,5,3.7,7.2
				c81.2,65.4,203.9,65.8,299.4,39.8c71.2-21,121.8-37,194-13.5C548.6,296.4,548.9,213.2,548.5,141.2z M475.5,341.8
				c0-0.1-0.1-0.1-0.1-0.2C475.4,341.7,475.5,341.7,475.5,341.8z M475.2,341.5c0,0-0.1-0.1-0.1-0.1
				C475.2,341.4,475.2,341.5,475.2,341.5z M474.9,341.4c0,0-0.1,0-0.1,0C474.8,341.3,474.8,341.3,474.9,341.4z M477.5,282.6
				c14.5-4.6,33.6,2.3,37.1,18.5c3,11.8,0.4,20.3-7.8,25.5c-4.8,3-9.8,3.7-15,2.2C470.5,322.6,476.5,298.8,477.5,282.6z
				 M450.8,230.5c0,0.1-0.1,0.1-0.1,0.1C450.7,230.6,450.7,230.6,450.8,230.5C450.8,230.5,450.8,230.5,450.8,230.5z M450.5,230.8
				c-0.1,0.1-0.2,0.1-0.4,0C450.3,230.9,450.4,230.9,450.5,230.8z M375.5,220.4c51.6,8.3,86,16.5,130.1,12.2
				c18.7-2.2,0.5-35.4-3.6-42.7c-1.2-2.1-0.6-4.8,1.4-6.3c3.1-2.6,6.4-3,8.7,0.7c9.8,14.4,19.3,32.9,12.8,51.2
				c-19.8,30-110.6,25.5-143.3,19.8c-8.4-1.3-13.6-3.1-15.9-5.3c-7.3-7.3-8.5-15.7-3.6-25.1C365.2,220.8,369.7,219.3,375.5,220.4z
				 M396.4,301.8c0,0.1,0,0.2-0.1,0.3C396.4,302,396.4,301.9,396.4,301.8z M396.4,302.4c0,0.1,0,0.2,0.1,0.3
				C396.4,302.6,396.4,302.5,396.4,302.4z M396.5,301.5c0-0.1,0.1-0.2,0.2-0.3C396.6,301.3,396.5,301.4,396.5,301.5z M396.8,301
				c0.2-0.2,0.4-0.3,0.6-0.4C397.2,300.7,397,300.9,396.8,301z M430.1,286.6c-10.6,7.4-31.2,10.7-43.1,11.7
				c-2.9,0.3-5.1-0.9-6.5-3.4c-1-3.3,2.7-5.1,6.3-6.1c0,0,40.9-7.6,40.9-7.6C430.8,280.9,432.8,283.8,430.1,286.6z M342.7,194
				c0-0.1-0.1-0.1-0.1-0.2C342.6,193.8,342.6,193.9,342.7,194z M342.9,194.4c0-0.1,0-0.2-0.1-0.2
				C342.8,194.2,342.9,194.3,342.9,194.4z M341.7,193.5c0.1,0,0.1,0,0.2,0c-0.1,0-0.2,0-0.3,0C341.6,193.5,341.7,193.4,341.7,193.5z
				 M342.3,193.7c-0.1,0-0.1-0.1-0.2-0.1C342.2,193.6,342.3,193.6,342.3,193.7z M295.3,50.6c-0.1-0.1-0.1-0.2-0.2-0.3
				C295.2,50.4,295.3,50.5,295.3,50.6z M295.6,51.4c0-0.1,0-0.3-0.1-0.4C295.5,51.1,295.6,51.2,295.6,51.4z M294,49.6
				c0.1,0,0.2,0.1,0.2,0.1c-0.2-0.1-0.3-0.1-0.5-0.1C293.8,49.6,293.9,49.6,294,49.6z M294.9,50c-0.1-0.1-0.2-0.2-0.3-0.2
				C294.7,49.9,294.8,50,294.9,50z M222.3,126.9c1.4-1.6,3.4-2.7,5.9-3.2l41.5-7.7c3,0,3.9,3,1.4,5.8
				C266.8,125.3,216.6,141.7,222.3,126.9z M96.9,149.7c0-0.6,0.3-1,0.9-1.1c18.2-5,36.7,3.6,38.8,23.3c2.7,26-32.8,30.8-39.4,5.8
				C96.2,173.5,96.1,164.2,96.9,149.7z M270.7,365.7c-5.3,4.2-11.7,4.5-19,0.9c-9.8-4.8-13.8-12.2-11.9-22.1
				c1.5-8.2,3.3-16.3,5.2-24.3c0.1-0.5,0.4-0.8,0.9-0.8c17.6-0.6,33.5,9.2,33.1,28.7C278.8,355.7,276.1,361.5,270.7,365.7z
				 M275.5,305.1c-15-17.6-24.7-37.3-29-59.1c-0.4-2.2-0.8-2.2-1.2,0c-3.7,23.1-7.9,46.8-16.2,68.9c-3.6,9.4-7.9,16-18.6,14.7
				c-17.3-2.1-28.4-15.7-35-30.5c-0.4-0.9-1.8-0.7-1.9,0.3c-2.9,23-15.1,63-41.6,69.1c-21.7,5-38.9-24.6-45-41
				c-8.2-22.3-10.8-46.4-13.6-69.8c-2-17.3,4.2-29.5,18.5-36.6c27.3-13.4,30.4,42.1,31,55.7c0.7,18.3,1.5,36.7,6.8,54.4
				c1.7,5.8,7.8,8.3,11.2,1.7c9.9-19.2,12.7-40.4,13.7-61.6c1-22.8,0.3-45.5-2.3-68.2c-1.1-10.2,10-21.7,18.4-27.1
				c22.5-14.4,27.6,33.7,28.4,45.7c1.4,10.3,0.5,74.5,15.9,69c15.1-18.6,16.3-51,16.9-74.1c0.1-15.9,2.5-25.2,14.4-34.6
				c45-31.7,42.3,94.8,63.2,106.5c0.6,0.3,1.2,0.4,1.9,0.2c17.1-11.1,9-76.6,5.1-95.4c-7-35.6-14.8-71.1-23.4-106.4
				c-1.4-5.7-0.7-10.1,3.6-13.2c12.8-4.6,16.1,3.3,18.6,13.5c8.4,34.5,16.1,69.2,23.1,104c4.5,33.8,10.5,76.2-5,107.7
				C320,327.8,295.3,328.2,275.5,305.1z M331.1,306.9c0,0-0.1,0-0.1,0C331,306.9,331.1,306.9,331.1,306.9z M330.9,306.9
				c0,0-0.1,0-0.1,0.1C330.8,307,330.8,307,330.9,306.9z M330.7,307.1c0,0-0.1,0.1-0.1,0.1C330.6,307.2,330.6,307.2,330.7,307.1z
				 M330.5,307.4c0,0.1,0,0.1,0,0.2C330.5,307.5,330.5,307.4,330.5,307.4z M475.6,341.9c0,0.1,0.1,0.2,0.1,0.4
				C475.6,342.2,475.6,342,475.6,341.9z"/>
			
				<radialGradient id="SVGID_00000126309015777275751880000014672828490505010614_" cx="534.1216" cy="128.0666" r="445.4231" gradientUnits="userSpaceOnUse">
				<stop  offset="0" style="stop-color:#41C0F0"/>
				<stop  offset="0.9992" style="stop-color:#2065A3"/>
			</radialGradient>
			<path style="fill:url(#SVGID_00000126309015777275751880000014672828490505010614_);" d="M127.8,180.1c-0.2,3.1,0.4,3.2,1.9,0.6
				c3.5-6.2,1.2-16.3-5.3-19.9c-1.7-0.9-2-0.6-1,1C126.8,167.4,128.3,173.5,127.8,180.1z"/>
			
				<radialGradient id="SVGID_00000148647761429804537790000007042736844406456767_" cx="534.1216" cy="128.0666" r="445.4231" gradientUnits="userSpaceOnUse">
				<stop  offset="0" style="stop-color:#41C0F0"/>
				<stop  offset="0.9992" style="stop-color:#2065A3"/>
			</radialGradient>
			<path style="fill:url(#SVGID_00000148647761429804537790000007042736844406456767_);" d="M506.3,315.8c-0.8,3.9-0.2,4.1,1.8,0.7
				c4.4-7.5,3.1-14.3-3.9-20.6c-1.2-0.6-0.9,1.5-0.6,2.1C506.5,304.4,507.4,310.3,506.3,315.8z"/>
			
				<radialGradient id="SVGID_00000017475029126038295300000008705317090949310106_" cx="534.1216" cy="128.0666" r="445.4231" gradientUnits="userSpaceOnUse">
				<stop  offset="0" style="stop-color:#41C0F0"/>
				<stop  offset="0.9992" style="stop-color:#2065A3"/>
			</radialGradient>
			<path style="fill:url(#SVGID_00000017475029126038295300000008705317090949310106_);" d="M269.2,336.8c-1.1-0.2-1.1,1.4-0.8,2.2
				c2,6.8,2.1,12.9,0.2,18.2c-1.2,3.2-0.6,3.5,1.6,0.9C275.6,351.5,275.4,344,269.2,336.8z"/>
		</g>
		<path class="st6" d="M495.9,442.3l-1,39.6c0,0.9-0.8,1.4-1.6,1.5c-4.1,1.2-2.7-6.9-3-9.3c0.3-17.2,1.3-34.4,2.7-51.5
			c0.2-2.9,2-4.1,5.3-3.6c6.1,0.9,7.3,7,8.6,12.2c1.4,3.3,9.9,48,13.1,41.5c1.1-3.9,1.7-7.8,1.7-11.6c0-13.5-0.9-27.6-2.8-42.3
			c-0.3-1.7,1-2.4,2.5-2.7c0.8-0.2,1.3,0.1,1.5,1c0.8,5.5,11,77.2-10.7,62.4c-6.1-4.1-13.2-29.7-15.3-37.5
			C496.6,441.8,495.9,441.9,495.9,442.3z"/>
		<path class="st6" d="M84.1,453.4c3-10.5,3.8-19.5,10.2-28.9c5.7-8.3,16.5-10,18.1,2.8c1.6,13.1-2.8,23.1-13.3,30.2
			c-0.7,0.4-0.6,0.8,0.1,1.1c15.9,6.7,3.7,25.5-10.9,19.8c-0.7-0.3-1.2-0.1-1.5,0.7c-1,2.9-4.1,2.6-5.8,0.3
			c-9.4-11.4-7.4-38.8-3.8-53.1c0.8-3.3,2.9-5.1,6.3-5.5c3.4-0.5,5.5,0.7,4.5,4.3c-2.2,9.2-3.6,18.6-4.3,28
			C83.5,454.8,83.7,454.8,84.1,453.4z M88.4,454.8c-0.1,0.3,0.2,0.6,0.5,0.5c10.5-2.6,14.9-16.7,14.4-26.8c-0.8-3.3-4.8-2.6-6.1,1
			C93.6,437.4,90.7,445.8,88.4,454.8z M97.3,466.1c-1.8-3.6-4.7-5.1-8.8-4.5c-2.2,0.5-1.1,3.9-1.5,6.3
			C86.7,479.1,101.9,475.3,97.3,466.1z"/>
		<path class="st6" d="M352.4,451.8c0.8-8,3-15.6,6.5-22.9c4-8.3,17.9-19,20.8-2.2c2.2,12.9-2.2,23.1-13.1,30.7
			c-0.6,0.4-0.6,0.8,0.1,1.1c16,7.3,3.6,25.1-11.2,20.2c-0.8-0.2-1.2,0-1.4,0.8c-0.3,1.5-2.4,2.7-3.8,1.6c-11.8-8.3-8.9-42-5.7-54.4
			c0.8-3.2,2.9-5,6.2-5.5c3.3-0.7,5.6,0.3,4.6,4c-1.4,6.1-5.1,21.1-3.4,26.6C352.2,452.5,352.3,452.5,352.4,451.8z M366.8,426.8
			c-5.7,6.5-8.7,19.3-10.9,27.6c-0.1,0.4,0.1,0.9,0.6,1c10.9-5.2,15.4-15.4,13.8-27.6C370.1,426.2,367.9,425.5,366.8,426.8z
			 M358.3,474.5c9.1,2.4,10.3-11.1-0.8-13.4c-1.2-0.3-2.5,0.5-2.7,1.8c0,0.1,0,0.3,0,0.4l-0.2,6
			C354.3,471.7,355.9,473.9,358.3,474.5z"/>
		<path class="st6" d="M215.9,474.8c3.9-0.6,7.4-1.9,10.7-4c1.1-0.7,2.3-0.1,3,0.8c0.6,0.7,0.5,1.7-0.2,2.2
			c-33.2,24.4-27.4-35.4-25-47.9c0.7-3.8,3-5.6,6.8-5.4c3.1-0.3,6.1,1.9,5.3,5.2c-3.5,14.9-5.1,30.1-4.9,45.5
			C211.7,473.4,213.7,475.1,215.9,474.8z"/>
		<path class="st6" d="M274.6,463.9l-1.9,16c-0.1,1.1-0.7,1.6-1.8,1.6c-1.2,0.1-2.7-0.1-2.4-1.7c0,0,2-17.2,2-17.2
			c0.3-1.4-1.8-2.7-2.5-3.5c-1.3-1.5,1.1-2.7,2.4-2.5c0.8,0,1.3-0.4,1.5-1.2c1.6-9.5,5.3-26,12.1-32.5c7.9-7.6,12.8,2.1,13.2,9.8
			c0.7,15.8,2.6,31.2,5.8,46.1c0.3,2-1.6,2.3-3.1,1.8c-2.2-0.4-3.7-1.6-4.4-3.8l-4.4-13.5c-0.2-0.7-0.9-1-1.6-0.8
			c-4.5,1.6-9.2,1.9-13.9,0.9C275,463.1,274.7,463.3,274.6,463.9z M282.6,433.2c-3.4,4.3-5.9,18.8-6.7,23.9
			c-0.3,1.9,0.5,2.8,2.5,2.6l9.3-1c1.8-0.2,2.5-1.1,2.2-2.9l-3.5-22C285.8,430.8,284.6,430.6,282.6,433.2z"/>
		<path class="st6" d="M436,462.2c-19.7,5.7-13.4-8.4-17,17.7c-0.2,2.1-4.2,2.3-4.3,0.1c-0.1-0.2,2.1-17.3,2-17.5
			c0.3-1.5-1.9-2.7-2.7-3.6c-0.5-0.4-0.4-1.3,0.2-1.6c1-0.5,3.9-1.1,4-2.5c1.6-9.2,5.5-26.1,11.9-31.9c4.5-4.1,10.8-2.6,12.3,3.5
			c0.7,2.8,1.1,5.7,1.2,8.6c0.6,14.8,2.4,29.3,5.5,43.5c0.3,2-1.6,2.4-3.2,2.1c-2.1-0.1-3.4-1.1-4-3.1l-4.7-14.5
			C437.1,462.3,436.5,462,436,462.2z M436.1,455.7l-3.5-22.1c-0.8-5-2.1-5.1-3.9-0.4c-3,7.6-5.1,15.6-6.5,23.7
			c-0.3,2.1,0.5,3,2.7,2.8l8.9-1C435.6,458.5,436.4,457.5,436.1,455.7z"/>
		<path class="st1" d="M152.9,457.9c6.1,0,11.9,3.2,13.3,9.5c2.8,12.8-13,17.5-17.1,5.2c-0.8-2.4,0.1-7,2.5-13.8
			C151.8,458.2,152.3,457.9,152.9,457.9z M162.8,474.7c0.5,0,0.9-1.9,0.9-4.2c0-2.3-0.4-4.2-0.9-4.2c0,0,0,0,0,0
			c-0.5,0-0.9,1.9-0.9,4.2C161.9,472.8,162.3,474.7,162.8,474.7C162.8,474.7,162.8,474.7,162.8,474.7z"/>
		
			<linearGradient id="SVGID_00000008127316777339307600000012591548496750347137_" gradientUnits="userSpaceOnUse" x1="26.2609" y1="300" x2="573.7391" y2="300">
			<stop  offset="0" style="stop-color:#41C0F0"/>
			<stop  offset="0.9992" style="stop-color:#2065A3"/>
		</linearGradient>
		<path style="fill:url(#SVGID_00000008127316777339307600000012591548496750347137_);" d="M543.5,85
			c-70.3-40.9-166.2-65.6-250.3-61.6c-74.5,2.5-149.4,23.3-215.9,53.6c-23.2,9.4-40.5,21.3-48.1,45.5c-1.9,6.1-2.9,15.2-2.9,27.2
			c0,99.2,0,198.3,0,297.5c-0.7,33.2,7.6,52.9,35.2,68.9c39.3,19.7,102.9,42.3,149.8,51c1.2,0.3,1.3,0.1,0.2-0.6
			c-8.7-5.1-15.6-11.9-20.6-20.6c-27.7-9.1-56.8-16.6-83.9-28.4c-33.1-13.6-64.4-22.9-64.3-62.7c0.2-98.2,0.3-196.4,0.3-294.7
			c-0.1-34.4,3.2-49.4,31.9-63.4c68.1-32,142-53.3,217.2-56.4c82-3.9,170.1,18.6,240.3,57.7c10.4,5.8,17.6,14,21.5,24.6
			c2.1,5.8,3.2,16.1,3.2,30.9c0,101.8,0,203.6,0,305.4c0,35.3-29.6,46.9-56.4,58.8C422.6,553.9,334,566.7,249.1,557
			c10,13.5,27.7,18.1,35.9,19.6c19.9,0.7,43,0.5,53.1-0.2c60.1-3.9,117.8-18.8,171.2-43.8c28.8-12.7,52.5-23.9,61.5-52
			c2-6.4,3.1-16.7,3-30.9c0-101.2,0-202.5,0-303.7C574.4,118.4,565.6,98.6,543.5,85z M455.5,63.1c-0.1,0-0.3-0.1-0.4-0.1
			c0.2,0,0.4,0.1,0.6,0.1C455.7,63.1,455.6,63.1,455.5,63.1z"/>
		<path class="st8" d="M246.1,527.9c-4.2-37.1-50.2-32.3-49.3,2.5c0.4,17.1,19,38.5,36.1,40.9c16.1,2.9,35.3,4.5,53.3,5.2
			c-37.3-5.2-40.1-29.8-39.7-39.3c0.1-3.1,0.1-6.2-0.4-9.2C246.1,528,246.1,527.9,246.1,527.9z"/>
	</g>
</g>
</svg>
